<svg width="86" height="113" viewBox="0 0 86 113" fill="none" xmlns="http://www.w3.org/2000/svg">
<path d="M76.2589 19.5559C76.1034 18.3631 75.5422 17.2699 74.6791 16.4784C73.816 15.687 72.7094 15.251 71.564 15.251C70.4187 15.251 69.3121 15.687 68.449 16.4784C67.5859 17.2699 67.0246 18.3631 66.8691 19.5559V23.0612H76.2589V19.5559Z" fill="black"/>
<path d="M71.6089 74.1648L75.6456 64.5713H67.4844L71.6089 74.1648Z" fill="black"/>
<path d="M76.2598 25.8281H66.87L66.7822 61.8036H76.3475L76.2598 25.8281Z" fill="black"/>
<path d="M45.6329 50.7344H41.2451V67.3385H45.6329V50.7344Z" fill="black"/>
<path d="M33.3467 38.7422H28.959V43.3544H33.3467V38.7422Z" fill="black"/>
<path d="M21.0616 50.7344H16.6738V55.3466H21.0616V50.7344Z" fill="black"/>
<path d="M21.0616 38.7422H16.6738V43.3544H21.0616V38.7422Z" fill="black"/>
<path d="M33.3467 50.7344H28.959V55.3466H33.3467V50.7344Z" fill="black"/>
<path d="M46.5106 22.1387H16.6738V29.5183H46.5106V22.1387Z" fill="black"/>
<path d="M48.7043 14.7588H13.6023C12.555 14.7588 11.5505 15.1961 10.8099 15.9746C10.0694 16.7531 9.65332 17.8089 9.65332 18.9098V72.4118C9.65332 73.5128 10.0694 74.5686 10.8099 75.3471C11.5505 76.1255 12.555 76.5629 13.6023 76.5629H48.7043C49.7517 76.5629 50.7561 76.1255 51.4967 75.3471C52.2373 74.5686 52.6533 73.5128 52.6533 72.4118V18.9098C52.6533 17.8089 52.2373 16.7531 51.4967 15.9746C50.7561 15.1961 49.7517 14.7588 48.7043 14.7588ZM23.6941 68.7221C23.6941 69.089 23.5555 69.441 23.3086 69.7005C23.0617 69.9599 22.7269 70.1057 22.3778 70.1057H15.3574C15.0083 70.1057 14.6735 69.9599 14.4266 69.7005C14.1798 69.441 14.0411 69.089 14.0411 68.7221V61.3425C14.0411 60.9755 14.1798 60.6235 14.4266 60.3641C14.6735 60.1046 15.0083 59.9588 15.3574 59.9588H22.3778C22.7269 59.9588 23.0617 60.1046 23.3086 60.3641C23.5555 60.6235 23.6941 60.9755 23.6941 61.3425V68.7221ZM23.6941 56.7302C23.6941 57.0972 23.5555 57.4491 23.3086 57.7086C23.0617 57.9681 22.7269 58.1139 22.3778 58.1139H15.3574C15.0083 58.1139 14.6735 57.9681 14.4266 57.7086C14.1798 57.4491 14.0411 57.0972 14.0411 56.7302V49.3506C14.0411 48.9837 14.1798 48.6317 14.4266 48.3722C14.6735 48.1127 15.0083 47.967 15.3574 47.967H22.3778C22.7269 47.967 23.0617 48.1127 23.3086 48.3722C23.5555 48.6317 23.6941 48.9837 23.6941 49.3506V56.7302ZM23.6941 44.7384C23.6941 45.1054 23.5555 45.4573 23.3086 45.7168C23.0617 45.9763 22.7269 46.1221 22.3778 46.1221H15.3574C15.0083 46.1221 14.6735 45.9763 14.4266 45.7168C14.1798 45.4573 14.0411 45.1054 14.0411 44.7384V37.3588C14.0411 36.9918 14.1798 36.6399 14.4266 36.3804C14.6735 36.1209 15.0083 35.9751 15.3574 35.9751H22.3778C22.7269 35.9751 23.0617 36.1209 23.3086 36.3804C23.5555 36.6399 23.6941 36.9918 23.6941 37.3588V44.7384ZM35.9799 68.7221C35.9799 69.089 35.8412 69.441 35.5943 69.7005C35.3475 69.9599 35.0126 70.1057 34.6635 70.1057H27.6431C27.294 70.1057 26.9592 69.9599 26.7123 69.7005C26.4655 69.441 26.3268 69.089 26.3268 68.7221V61.3425C26.3268 60.9755 26.4655 60.6235 26.7123 60.3641C26.9592 60.1046 27.294 59.9588 27.6431 59.9588H34.6635C35.0126 59.9588 35.3475 60.1046 35.5943 60.3641C35.8412 60.6235 35.9799 60.9755 35.9799 61.3425V68.7221ZM35.9799 56.7302C35.9799 57.0972 35.8412 57.4491 35.5943 57.7086C35.3475 57.9681 35.0126 58.1139 34.6635 58.1139H27.6431C27.294 58.1139 26.9592 57.9681 26.7123 57.7086C26.4655 57.4491 26.3268 57.0972 26.3268 56.7302V49.3506C26.3268 48.9837 26.4655 48.6317 26.7123 48.3722C26.9592 48.1127 27.294 47.967 27.6431 47.967H34.6635C35.0126 47.967 35.3475 48.1127 35.5943 48.3722C35.8412 48.6317 35.9799 48.9837 35.9799 49.3506V56.7302ZM35.9799 44.7384C35.9799 45.1054 35.8412 45.4573 35.5943 45.7168C35.3475 45.9763 35.0126 46.1221 34.6635 46.1221H27.6431C27.294 46.1221 26.9592 45.9763 26.7123 45.7168C26.4655 45.4573 26.3268 45.1054 26.3268 44.7384V37.3588C26.3268 36.9918 26.4655 36.6399 26.7123 36.3804C26.9592 36.1209 27.294 35.9751 27.6431 35.9751H34.6635C35.0126 35.9751 35.3475 36.1209 35.5943 36.3804C35.8412 36.6399 35.9799 36.9918 35.9799 37.3588V44.7384ZM48.2656 68.7221C48.2656 69.089 48.1269 69.441 47.88 69.7005C47.6332 69.9599 47.2984 70.1057 46.9492 70.1057H39.9288C39.5797 70.1057 39.2449 69.9599 38.998 69.7005C38.7512 69.441 38.6125 69.089 38.6125 68.7221V49.3506C38.6125 48.9837 38.7512 48.6317 38.998 48.3722C39.2449 48.1127 39.5797 47.967 39.9288 47.967H46.9492C47.2984 47.967 47.6332 48.1127 47.88 48.3722C48.1269 48.6317 48.2656 48.9837 48.2656 49.3506V68.7221ZM48.2656 44.7384C48.2656 45.1054 48.1269 45.4573 47.88 45.7168C47.6332 45.9763 47.2984 46.1221 46.9492 46.1221H39.9288C39.5797 46.1221 39.2449 45.9763 38.998 45.7168C38.7512 45.4573 38.6125 45.1054 38.6125 44.7384V37.3588C38.6125 36.9918 38.7512 36.6399 38.998 36.3804C39.2449 36.1209 39.5797 35.9751 39.9288 35.9751H46.9492C47.2984 35.9751 47.6332 36.1209 47.88 36.3804C48.1269 36.6399 48.2656 36.9918 48.2656 37.3588V44.7384ZM49.1431 30.9016C49.1431 31.2686 49.0044 31.6206 48.7576 31.8801C48.5107 32.1395 48.1759 32.2853 47.8268 32.2853H15.3574C15.0083 32.2853 14.6735 32.1395 14.4266 31.8801C14.1798 31.6206 14.0411 31.2686 14.0411 30.9016V20.7547C14.0411 20.3877 14.1798 20.0358 14.4266 19.7763C14.6735 19.5168 15.0083 19.371 15.3574 19.371H47.8268C48.1759 19.371 48.5107 19.5168 48.7576 19.7763C49.0044 20.0358 49.1431 20.3877 49.1431 20.7547V30.9016Z" fill="black"/>
<path d="M33.3467 62.7266H28.959V67.3388H33.3467V62.7266Z" fill="black"/>
<path d="M21.0616 62.7266H16.6738V67.3388H21.0616V62.7266Z" fill="black"/>
<path d="M45.6329 38.7422H41.2451V43.3544H45.6329V38.7422Z" fill="black"/>
</svg>
