<svg width="26" height="16" viewBox="0 0 26 16" fill="none" xmlns="http://www.w3.org/2000/svg">
<path d="M1 15.4V1H10L13 4V15.4H1Z" stroke="black" stroke-width="0.8"/>
<path d="M10 1V4H13" stroke="black" stroke-width="0.8"/>
<path d="M2.7998 7H11.1998M2.7998 10H11.1998M2.7998 13H11.1998" stroke="black" stroke-width="0.8"/>
<path d="M21.6464 14.3536C21.8417 14.5488 22.1583 14.5488 22.3536 14.3536L25.5355 11.1716C25.7308 10.9763 25.7308 10.6597 25.5355 10.4645C25.3403 10.2692 25.0237 10.2692 24.8284 10.4645L22 13.2929L19.1716 10.4645C18.9763 10.2692 18.6597 10.2692 18.4645 10.4645C18.2692 10.6597 18.2692 10.9763 18.4645 11.1716L21.6464 14.3536ZM21.5 2L21.5 14L22.5 14L22.5 2L21.5 2Z" fill="black"/>
</svg>
