<svg width="33" height="17" viewBox="0 0 33 17" fill="none" xmlns="http://www.w3.org/2000/svg">
<path d="M7.14844 15.2812C6.90625 14.3594 6.55859 13.4961 6.10547 12.6914C5.66016 11.8789 4.79297 10.6211 3.50391 8.91797C2.55859 7.66797 1.97656 6.875 1.75781 6.53906C1.39844 5.99219 1.13672 5.49219 0.972656 5.03906C0.816406 4.57812 0.738281 4.11328 0.738281 3.64453C0.738281 2.77734 1.02734 2.05078 1.60547 1.46484C2.18359 0.878906 2.89844 0.585938 3.75 0.585938C4.60938 0.585938 5.35547 0.890625 5.98828 1.5C6.46484 1.95312 6.85156 2.62891 7.14844 3.52734C7.4375 2.52734 7.87891 1.78516 8.47266 1.30078C9.07422 0.816406 9.74609 0.574219 10.4883 0.574219C11.332 0.574219 12.0469 0.867188 12.6328 1.45312C13.2188 2.03125 13.5117 2.72266 13.5117 3.52734C13.5117 4.23047 13.3398 4.96484 12.9961 5.73047C12.6523 6.48828 11.9883 7.48438 11.0039 8.71875C9.72266 10.3359 8.82031 11.6094 8.29688 12.5391C7.77344 13.4688 7.39062 14.3828 7.14844 15.2812ZM32.9077 8.92969C32.9077 10.9922 32.1772 12.7539 30.7162 14.2148C29.2631 15.668 27.5053 16.3945 25.4428 16.3945C23.3803 16.3945 21.6186 15.668 20.1577 14.2148C18.6967 12.7539 17.9662 10.9922 17.9662 8.92969C17.9662 6.85938 18.6967 5.09766 20.1577 3.64453C21.6186 2.18359 23.3803 1.45312 25.4428 1.45312C27.5053 1.45312 29.2631 2.18359 30.7162 3.64453C32.1772 5.09766 32.9077 6.85938 32.9077 8.92969ZM23.5209 7.38281C23.5209 7.11719 23.4272 6.89453 23.2397 6.71484C23.06 6.52734 22.8373 6.43359 22.5717 6.43359C22.3139 6.43359 22.0912 6.52734 21.9037 6.71484C21.7162 6.89453 21.6225 7.11719 21.6225 7.38281C21.6225 7.64062 21.7162 7.86328 21.9037 8.05078C22.0912 8.23828 22.3139 8.33203 22.5717 8.33203C22.8373 8.33203 23.06 8.23828 23.2397 8.05078C23.4272 7.86328 23.5209 7.64062 23.5209 7.38281ZM29.2514 7.38281C29.2514 7.11719 29.1577 6.89453 28.9702 6.71484C28.7905 6.52734 28.5678 6.43359 28.3022 6.43359C28.0444 6.43359 27.8217 6.52734 27.6342 6.71484C27.4467 6.89453 27.353 7.11719 27.353 7.38281C27.353 7.64062 27.4467 7.86328 27.6342 8.05078C27.8217 8.23828 28.0444 8.33203 28.3022 8.33203C28.5678 8.33203 28.7905 8.23828 28.9702 8.05078C29.1577 7.86328 29.2514 7.64062 29.2514 7.38281ZM21.9975 11.332C22.3881 12.0742 22.8686 12.6406 23.4389 13.0312C24.0092 13.4219 24.6772 13.6172 25.4428 13.6172C26.2006 13.6172 26.8647 13.4219 27.435 13.0312C28.0131 12.6406 28.4975 12.0742 28.8881 11.332L28.1498 10.9102C27.5405 12.0352 26.6381 12.5977 25.4428 12.5977C24.2475 12.5977 23.3412 12.0352 22.7241 10.9102L21.9975 11.332Z" fill="white"/>
</svg>
